<svg xmlns="http://www.w3.org/2000/svg" xmlns:xlink="http://www.w3.org/1999/xlink" width="1080" zoomAndPan="magnify" viewBox="0 0 810 809.999993" height="1080" preserveAspectRatio="xMidYMid meet" version="1.0"><defs><g/><clipPath id="861202e433"><path d="M 99.148438 99.839844 L 711.148438 99.839844 L 711.148438 711.839844 L 99.148438 711.839844 Z M 99.148438 99.839844 " clip-rule="nonzero"/></clipPath><clipPath id="e45f2fafa1"><path d="M 30.78125 31.472656 L 779.28125 31.472656 L 779.28125 779.972656 L 30.78125 779.972656 Z M 30.78125 31.472656 " clip-rule="nonzero"/></clipPath><clipPath id="70ab79ea11"><path d="M 136.742188 136.742188 L 673.257812 136.742188 L 673.257812 673.257812 L 136.742188 673.257812 Z M 136.742188 136.742188 " clip-rule="nonzero"/></clipPath><clipPath id="569a905cd3"><path d="M 405 136.742188 C 256.84375 136.742188 136.742188 256.84375 136.742188 405 C 136.742188 553.15625 256.84375 673.257812 405 673.257812 C 553.15625 673.257812 673.257812 553.15625 673.257812 405 C 673.257812 256.84375 553.15625 136.742188 405 136.742188 " clip-rule="nonzero"/></clipPath><linearGradient x1="-0.00000876328" gradientTransform="matrix(0.558872, 0, 0, 0.558872, 136.74135, 136.741349)" y1="0" x2="959.999908" gradientUnits="userSpaceOnUse" y2="0" id="e6b01720f3"><stop stop-opacity="1" stop-color="rgb(11.799622%, 22.698975%, 54.098511%)" offset="0"/><stop stop-opacity="1" stop-color="rgb(11.810303%, 22.761536%, 54.248047%)" offset="0.0078125"/><stop stop-opacity="1" stop-color="rgb(11.830139%, 22.888184%, 54.545593%)" offset="0.015625"/><stop stop-opacity="1" stop-color="rgb(11.851501%, 23.013306%, 54.84314%)" offset="0.0234375"/><stop stop-opacity="1" stop-color="rgb(11.872864%, 23.138428%, 55.140686%)" offset="0.03125"/><stop stop-opacity="1" stop-color="rgb(11.894226%, 23.265076%, 55.438232%)" offset="0.0390625"/><stop stop-opacity="1" stop-color="rgb(11.915588%, 23.390198%, 55.735779%)" offset="0.046875"/><stop stop-opacity="1" stop-color="rgb(11.936951%, 23.516846%, 56.033325%)" offset="0.0546875"/><stop stop-opacity="1" stop-color="rgb(11.956787%, 23.641968%, 56.330872%)" offset="0.0625"/><stop stop-opacity="1" stop-color="rgb(11.978149%, 23.768616%, 56.628418%)" offset="0.0703125"/><stop stop-opacity="1" stop-color="rgb(11.999512%, 23.893738%, 56.925964%)" offset="0.078125"/><stop stop-opacity="1" stop-color="rgb(12.020874%, 24.01886%, 57.223511%)" offset="0.0859375"/><stop stop-opacity="1" stop-color="rgb(12.042236%, 24.145508%, 57.521057%)" offset="0.09375"/><stop stop-opacity="1" stop-color="rgb(12.062073%, 24.27063%, 57.818604%)" offset="0.101563"/><stop stop-opacity="1" stop-color="rgb(12.083435%, 24.397278%, 58.11615%)" offset="0.109375"/><stop stop-opacity="1" stop-color="rgb(12.104797%, 24.5224%, 58.415222%)" offset="0.117188"/><stop stop-opacity="1" stop-color="rgb(12.12616%, 24.649048%, 58.712769%)" offset="0.125"/><stop stop-opacity="1" stop-color="rgb(12.147522%, 24.77417%, 59.010315%)" offset="0.132813"/><stop stop-opacity="1" stop-color="rgb(12.168884%, 24.900818%, 59.307861%)" offset="0.140625"/><stop stop-opacity="1" stop-color="rgb(12.188721%, 25.02594%, 59.605408%)" offset="0.148438"/><stop stop-opacity="1" stop-color="rgb(12.210083%, 25.151062%, 59.902954%)" offset="0.15625"/><stop stop-opacity="1" stop-color="rgb(12.231445%, 25.27771%, 60.2005%)" offset="0.164063"/><stop stop-opacity="1" stop-color="rgb(12.252808%, 25.402832%, 60.498047%)" offset="0.171875"/><stop stop-opacity="1" stop-color="rgb(12.27417%, 25.52948%, 60.795593%)" offset="0.179688"/><stop stop-opacity="1" stop-color="rgb(12.295532%, 25.654602%, 61.09314%)" offset="0.1875"/><stop stop-opacity="1" stop-color="rgb(12.315369%, 25.78125%, 61.390686%)" offset="0.195312"/><stop stop-opacity="1" stop-color="rgb(12.336731%, 25.906372%, 61.688232%)" offset="0.203125"/><stop stop-opacity="1" stop-color="rgb(12.358093%, 26.031494%, 61.985779%)" offset="0.210938"/><stop stop-opacity="1" stop-color="rgb(12.379456%, 26.158142%, 62.283325%)" offset="0.21875"/><stop stop-opacity="1" stop-color="rgb(12.400818%, 26.283264%, 62.582397%)" offset="0.226562"/><stop stop-opacity="1" stop-color="rgb(12.420654%, 26.409912%, 62.879944%)" offset="0.234375"/><stop stop-opacity="1" stop-color="rgb(12.442017%, 26.535034%, 63.17749%)" offset="0.242188"/><stop stop-opacity="1" stop-color="rgb(12.463379%, 26.661682%, 63.475037%)" offset="0.25"/><stop stop-opacity="1" stop-color="rgb(12.484741%, 26.786804%, 63.772583%)" offset="0.257813"/><stop stop-opacity="1" stop-color="rgb(12.506104%, 26.911926%, 64.070129%)" offset="0.265625"/><stop stop-opacity="1" stop-color="rgb(12.527466%, 27.038574%, 64.367676%)" offset="0.273438"/><stop stop-opacity="1" stop-color="rgb(12.547302%, 27.163696%, 64.665222%)" offset="0.28125"/><stop stop-opacity="1" stop-color="rgb(12.568665%, 27.290344%, 64.962769%)" offset="0.289063"/><stop stop-opacity="1" stop-color="rgb(12.590027%, 27.415466%, 65.260315%)" offset="0.296875"/><stop stop-opacity="1" stop-color="rgb(12.611389%, 27.542114%, 65.557861%)" offset="0.304688"/><stop stop-opacity="1" stop-color="rgb(12.632751%, 27.667236%, 65.855408%)" offset="0.3125"/><stop stop-opacity="1" stop-color="rgb(12.654114%, 27.792358%, 66.152954%)" offset="0.320313"/><stop stop-opacity="1" stop-color="rgb(12.67395%, 27.919006%, 66.4505%)" offset="0.328125"/><stop stop-opacity="1" stop-color="rgb(12.695312%, 28.044128%, 66.749573%)" offset="0.335938"/><stop stop-opacity="1" stop-color="rgb(12.716675%, 28.170776%, 67.047119%)" offset="0.34375"/><stop stop-opacity="1" stop-color="rgb(12.738037%, 28.295898%, 67.344666%)" offset="0.351563"/><stop stop-opacity="1" stop-color="rgb(12.759399%, 28.422546%, 67.642212%)" offset="0.359375"/><stop stop-opacity="1" stop-color="rgb(12.779236%, 28.547668%, 67.939758%)" offset="0.367188"/><stop stop-opacity="1" stop-color="rgb(12.800598%, 28.672791%, 68.237305%)" offset="0.375"/><stop stop-opacity="1" stop-color="rgb(12.82196%, 28.799438%, 68.534851%)" offset="0.382812"/><stop stop-opacity="1" stop-color="rgb(12.843323%, 28.924561%, 68.832397%)" offset="0.390625"/><stop stop-opacity="1" stop-color="rgb(12.864685%, 29.051208%, 69.129944%)" offset="0.398438"/><stop stop-opacity="1" stop-color="rgb(12.886047%, 29.176331%, 69.42749%)" offset="0.40625"/><stop stop-opacity="1" stop-color="rgb(12.905884%, 29.302979%, 69.725037%)" offset="0.414062"/><stop stop-opacity="1" stop-color="rgb(12.927246%, 29.428101%, 70.022583%)" offset="0.421875"/><stop stop-opacity="1" stop-color="rgb(12.948608%, 29.553223%, 70.320129%)" offset="0.429688"/><stop stop-opacity="1" stop-color="rgb(12.969971%, 29.679871%, 70.619202%)" offset="0.4375"/><stop stop-opacity="1" stop-color="rgb(12.991333%, 29.804993%, 70.916748%)" offset="0.445312"/><stop stop-opacity="1" stop-color="rgb(13.012695%, 29.931641%, 71.214294%)" offset="0.453125"/><stop stop-opacity="1" stop-color="rgb(13.032532%, 30.056763%, 71.511841%)" offset="0.460938"/><stop stop-opacity="1" stop-color="rgb(13.053894%, 30.183411%, 71.809387%)" offset="0.46875"/><stop stop-opacity="1" stop-color="rgb(13.075256%, 30.308533%, 72.106934%)" offset="0.476562"/><stop stop-opacity="1" stop-color="rgb(13.096619%, 30.435181%, 72.40448%)" offset="0.484375"/><stop stop-opacity="1" stop-color="rgb(13.117981%, 30.560303%, 72.702026%)" offset="0.492188"/><stop stop-opacity="1" stop-color="rgb(13.137817%, 30.685425%, 72.999573%)" offset="0.5"/><stop stop-opacity="1" stop-color="rgb(13.15918%, 30.812073%, 73.297119%)" offset="0.507812"/><stop stop-opacity="1" stop-color="rgb(13.180542%, 30.937195%, 73.594666%)" offset="0.515625"/><stop stop-opacity="1" stop-color="rgb(13.201904%, 31.063843%, 73.892212%)" offset="0.523438"/><stop stop-opacity="1" stop-color="rgb(13.223267%, 31.188965%, 74.189758%)" offset="0.53125"/><stop stop-opacity="1" stop-color="rgb(13.244629%, 31.315613%, 74.487305%)" offset="0.539062"/><stop stop-opacity="1" stop-color="rgb(13.264465%, 31.440735%, 74.786377%)" offset="0.546875"/><stop stop-opacity="1" stop-color="rgb(13.285828%, 31.565857%, 75.083923%)" offset="0.554688"/><stop stop-opacity="1" stop-color="rgb(13.30719%, 31.692505%, 75.38147%)" offset="0.5625"/><stop stop-opacity="1" stop-color="rgb(13.328552%, 31.817627%, 75.679016%)" offset="0.570312"/><stop stop-opacity="1" stop-color="rgb(13.349915%, 31.944275%, 75.976562%)" offset="0.578125"/><stop stop-opacity="1" stop-color="rgb(13.371277%, 32.069397%, 76.274109%)" offset="0.585938"/><stop stop-opacity="1" stop-color="rgb(13.391113%, 32.196045%, 76.571655%)" offset="0.59375"/><stop stop-opacity="1" stop-color="rgb(13.412476%, 32.321167%, 76.869202%)" offset="0.601562"/><stop stop-opacity="1" stop-color="rgb(13.433838%, 32.446289%, 77.166748%)" offset="0.609375"/><stop stop-opacity="1" stop-color="rgb(13.4552%, 32.572937%, 77.464294%)" offset="0.617188"/><stop stop-opacity="1" stop-color="rgb(13.476562%, 32.698059%, 77.761841%)" offset="0.625"/><stop stop-opacity="1" stop-color="rgb(13.496399%, 32.824707%, 78.059387%)" offset="0.632812"/><stop stop-opacity="1" stop-color="rgb(13.517761%, 32.949829%, 78.356934%)" offset="0.640625"/><stop stop-opacity="1" stop-color="rgb(13.539124%, 33.076477%, 78.65448%)" offset="0.648438"/><stop stop-opacity="1" stop-color="rgb(13.560486%, 33.201599%, 78.953552%)" offset="0.65625"/><stop stop-opacity="1" stop-color="rgb(13.581848%, 33.326721%, 79.251099%)" offset="0.664062"/><stop stop-opacity="1" stop-color="rgb(13.60321%, 33.453369%, 79.548645%)" offset="0.671875"/><stop stop-opacity="1" stop-color="rgb(13.623047%, 33.578491%, 79.846191%)" offset="0.679688"/><stop stop-opacity="1" stop-color="rgb(13.644409%, 33.705139%, 80.143738%)" offset="0.6875"/><stop stop-opacity="1" stop-color="rgb(13.665771%, 33.830261%, 80.441284%)" offset="0.695312"/><stop stop-opacity="1" stop-color="rgb(13.687134%, 33.956909%, 80.738831%)" offset="0.703125"/><stop stop-opacity="1" stop-color="rgb(13.708496%, 34.082031%, 81.036377%)" offset="0.710938"/><stop stop-opacity="1" stop-color="rgb(13.729858%, 34.207153%, 81.333923%)" offset="0.71875"/><stop stop-opacity="1" stop-color="rgb(13.749695%, 34.333801%, 81.63147%)" offset="0.726562"/><stop stop-opacity="1" stop-color="rgb(13.771057%, 34.458923%, 81.929016%)" offset="0.734375"/><stop stop-opacity="1" stop-color="rgb(13.792419%, 34.585571%, 82.226562%)" offset="0.742188"/><stop stop-opacity="1" stop-color="rgb(13.813782%, 34.710693%, 82.524109%)" offset="0.75"/><stop stop-opacity="1" stop-color="rgb(13.835144%, 34.837341%, 82.821655%)" offset="0.757812"/><stop stop-opacity="1" stop-color="rgb(13.85498%, 34.962463%, 83.120728%)" offset="0.765625"/><stop stop-opacity="1" stop-color="rgb(13.876343%, 35.089111%, 83.418274%)" offset="0.773437"/><stop stop-opacity="1" stop-color="rgb(13.897705%, 35.214233%, 83.71582%)" offset="0.78125"/><stop stop-opacity="1" stop-color="rgb(13.919067%, 35.339355%, 84.013367%)" offset="0.789062"/><stop stop-opacity="1" stop-color="rgb(13.94043%, 35.466003%, 84.310913%)" offset="0.796875"/><stop stop-opacity="1" stop-color="rgb(13.961792%, 35.591125%, 84.608459%)" offset="0.804687"/><stop stop-opacity="1" stop-color="rgb(13.981628%, 35.717773%, 84.906006%)" offset="0.8125"/><stop stop-opacity="1" stop-color="rgb(14.002991%, 35.842896%, 85.203552%)" offset="0.820312"/><stop stop-opacity="1" stop-color="rgb(14.024353%, 35.969543%, 85.501099%)" offset="0.828125"/><stop stop-opacity="1" stop-color="rgb(14.045715%, 36.094666%, 85.798645%)" offset="0.835937"/><stop stop-opacity="1" stop-color="rgb(14.067078%, 36.219788%, 86.096191%)" offset="0.84375"/><stop stop-opacity="1" stop-color="rgb(14.08844%, 36.346436%, 86.393738%)" offset="0.851562"/><stop stop-opacity="1" stop-color="rgb(14.108276%, 36.471558%, 86.691284%)" offset="0.859375"/><stop stop-opacity="1" stop-color="rgb(14.129639%, 36.598206%, 86.988831%)" offset="0.867187"/><stop stop-opacity="1" stop-color="rgb(14.151001%, 36.723328%, 87.287903%)" offset="0.875"/><stop stop-opacity="1" stop-color="rgb(14.172363%, 36.849976%, 87.585449%)" offset="0.882812"/><stop stop-opacity="1" stop-color="rgb(14.193726%, 36.975098%, 87.882996%)" offset="0.890625"/><stop stop-opacity="1" stop-color="rgb(14.215088%, 37.10022%, 88.180542%)" offset="0.898437"/><stop stop-opacity="1" stop-color="rgb(14.234924%, 37.226868%, 88.478088%)" offset="0.90625"/><stop stop-opacity="1" stop-color="rgb(14.256287%, 37.35199%, 88.775635%)" offset="0.914062"/><stop stop-opacity="1" stop-color="rgb(14.277649%, 37.478638%, 89.073181%)" offset="0.921875"/><stop stop-opacity="1" stop-color="rgb(14.299011%, 37.60376%, 89.370728%)" offset="0.929687"/><stop stop-opacity="1" stop-color="rgb(14.320374%, 37.730408%, 89.668274%)" offset="0.9375"/><stop stop-opacity="1" stop-color="rgb(14.34021%, 37.85553%, 89.96582%)" offset="0.945312"/><stop stop-opacity="1" stop-color="rgb(14.361572%, 37.980652%, 90.263367%)" offset="0.953125"/><stop stop-opacity="1" stop-color="rgb(14.382935%, 38.1073%, 90.560913%)" offset="0.960937"/><stop stop-opacity="1" stop-color="rgb(14.404297%, 38.232422%, 90.858459%)" offset="0.96875"/><stop stop-opacity="1" stop-color="rgb(14.425659%, 38.35907%, 91.156006%)" offset="0.976562"/><stop stop-opacity="1" stop-color="rgb(14.447021%, 38.484192%, 91.455078%)" offset="0.984375"/><stop stop-opacity="1" stop-color="rgb(14.466858%, 38.61084%, 91.752625%)" offset="0.992187"/><stop stop-opacity="1" stop-color="rgb(14.48822%, 38.735962%, 92.050171%)" offset="1"/></linearGradient><clipPath id="aaf16e953b"><path d="M 595.835938 79.234375 L 673.257812 79.234375 L 673.257812 156.65625 L 595.835938 156.65625 Z M 595.835938 79.234375 " clip-rule="nonzero"/></clipPath><clipPath id="0a21fccf6c"><path d="M 634.546875 79.234375 C 613.167969 79.234375 595.835938 96.566406 595.835938 117.945312 C 595.835938 139.324219 613.167969 156.65625 634.546875 156.65625 C 655.925781 156.65625 673.257812 139.324219 673.257812 117.945312 C 673.257812 96.566406 655.925781 79.234375 634.546875 79.234375 " clip-rule="nonzero"/></clipPath><linearGradient x1="-0.0000443508" gradientTransform="matrix(0.60487, 0, 0, 0.60487, 595.835328, 79.234089)" y1="0" x2="127.99995" gradientUnits="userSpaceOnUse" y2="0" id="f244bf8c90"><stop stop-opacity="1" stop-color="rgb(11.799622%, 22.698975%, 54.098511%)" offset="0"/><stop stop-opacity="1" stop-color="rgb(11.810303%, 22.761536%, 54.248047%)" offset="0.0078125"/><stop stop-opacity="1" stop-color="rgb(11.830139%, 22.888184%, 54.545593%)" offset="0.015625"/><stop stop-opacity="1" stop-color="rgb(11.851501%, 23.013306%, 54.84314%)" offset="0.0234375"/><stop stop-opacity="1" stop-color="rgb(11.872864%, 23.138428%, 55.140686%)" offset="0.03125"/><stop stop-opacity="1" stop-color="rgb(11.894226%, 23.265076%, 55.438232%)" offset="0.0390625"/><stop stop-opacity="1" stop-color="rgb(11.915588%, 23.390198%, 55.735779%)" offset="0.046875"/><stop stop-opacity="1" stop-color="rgb(11.936951%, 23.516846%, 56.033325%)" offset="0.0546875"/><stop stop-opacity="1" stop-color="rgb(11.956787%, 23.641968%, 56.330872%)" offset="0.0625"/><stop stop-opacity="1" stop-color="rgb(11.978149%, 23.768616%, 56.628418%)" offset="0.0703125"/><stop stop-opacity="1" stop-color="rgb(11.999512%, 23.893738%, 56.925964%)" offset="0.078125"/><stop stop-opacity="1" stop-color="rgb(12.020874%, 24.01886%, 57.223511%)" offset="0.0859375"/><stop stop-opacity="1" stop-color="rgb(12.042236%, 24.145508%, 57.521057%)" offset="0.09375"/><stop stop-opacity="1" stop-color="rgb(12.062073%, 24.27063%, 57.818604%)" offset="0.101562"/><stop stop-opacity="1" stop-color="rgb(12.083435%, 24.397278%, 58.11615%)" offset="0.109375"/><stop stop-opacity="1" stop-color="rgb(12.104797%, 24.5224%, 58.415222%)" offset="0.117188"/><stop stop-opacity="1" stop-color="rgb(12.12616%, 24.649048%, 58.712769%)" offset="0.125"/><stop stop-opacity="1" stop-color="rgb(12.147522%, 24.77417%, 59.010315%)" offset="0.132812"/><stop stop-opacity="1" stop-color="rgb(12.168884%, 24.900818%, 59.307861%)" offset="0.140625"/><stop stop-opacity="1" stop-color="rgb(12.188721%, 25.02594%, 59.605408%)" offset="0.148438"/><stop stop-opacity="1" stop-color="rgb(12.210083%, 25.151062%, 59.902954%)" offset="0.15625"/><stop stop-opacity="1" stop-color="rgb(12.231445%, 25.27771%, 60.2005%)" offset="0.164062"/><stop stop-opacity="1" stop-color="rgb(12.252808%, 25.402832%, 60.498047%)" offset="0.171875"/><stop stop-opacity="1" stop-color="rgb(12.27417%, 25.52948%, 60.795593%)" offset="0.179688"/><stop stop-opacity="1" stop-color="rgb(12.295532%, 25.654602%, 61.09314%)" offset="0.1875"/><stop stop-opacity="1" stop-color="rgb(12.315369%, 25.78125%, 61.390686%)" offset="0.195312"/><stop stop-opacity="1" stop-color="rgb(12.336731%, 25.906372%, 61.688232%)" offset="0.203125"/><stop stop-opacity="1" stop-color="rgb(12.358093%, 26.031494%, 61.985779%)" offset="0.210938"/><stop stop-opacity="1" stop-color="rgb(12.379456%, 26.158142%, 62.283325%)" offset="0.21875"/><stop stop-opacity="1" stop-color="rgb(12.400818%, 26.283264%, 62.582397%)" offset="0.226562"/><stop stop-opacity="1" stop-color="rgb(12.420654%, 26.409912%, 62.879944%)" offset="0.234375"/><stop stop-opacity="1" stop-color="rgb(12.442017%, 26.535034%, 63.17749%)" offset="0.242188"/><stop stop-opacity="1" stop-color="rgb(12.463379%, 26.661682%, 63.475037%)" offset="0.25"/><stop stop-opacity="1" stop-color="rgb(12.484741%, 26.786804%, 63.772583%)" offset="0.257812"/><stop stop-opacity="1" stop-color="rgb(12.506104%, 26.911926%, 64.070129%)" offset="0.265625"/><stop stop-opacity="1" stop-color="rgb(12.527466%, 27.038574%, 64.367676%)" offset="0.273438"/><stop stop-opacity="1" stop-color="rgb(12.547302%, 27.163696%, 64.665222%)" offset="0.28125"/><stop stop-opacity="1" stop-color="rgb(12.568665%, 27.290344%, 64.962769%)" offset="0.289062"/><stop stop-opacity="1" stop-color="rgb(12.590027%, 27.415466%, 65.260315%)" offset="0.296875"/><stop stop-opacity="1" stop-color="rgb(12.611389%, 27.542114%, 65.557861%)" offset="0.304688"/><stop stop-opacity="1" stop-color="rgb(12.632751%, 27.667236%, 65.855408%)" offset="0.3125"/><stop stop-opacity="1" stop-color="rgb(12.654114%, 27.792358%, 66.152954%)" offset="0.320312"/><stop stop-opacity="1" stop-color="rgb(12.67395%, 27.919006%, 66.4505%)" offset="0.328125"/><stop stop-opacity="1" stop-color="rgb(12.695312%, 28.044128%, 66.749573%)" offset="0.335938"/><stop stop-opacity="1" stop-color="rgb(12.716675%, 28.170776%, 67.047119%)" offset="0.34375"/><stop stop-opacity="1" stop-color="rgb(12.738037%, 28.295898%, 67.344666%)" offset="0.351562"/><stop stop-opacity="1" stop-color="rgb(12.759399%, 28.422546%, 67.642212%)" offset="0.359375"/><stop stop-opacity="1" stop-color="rgb(12.779236%, 28.547668%, 67.939758%)" offset="0.367188"/><stop stop-opacity="1" stop-color="rgb(12.800598%, 28.672791%, 68.237305%)" offset="0.375"/><stop stop-opacity="1" stop-color="rgb(12.82196%, 28.799438%, 68.534851%)" offset="0.382812"/><stop stop-opacity="1" stop-color="rgb(12.843323%, 28.924561%, 68.832397%)" offset="0.390625"/><stop stop-opacity="1" stop-color="rgb(12.864685%, 29.051208%, 69.129944%)" offset="0.398438"/><stop stop-opacity="1" stop-color="rgb(12.886047%, 29.176331%, 69.42749%)" offset="0.40625"/><stop stop-opacity="1" stop-color="rgb(12.905884%, 29.302979%, 69.725037%)" offset="0.414062"/><stop stop-opacity="1" stop-color="rgb(12.927246%, 29.428101%, 70.022583%)" offset="0.421875"/><stop stop-opacity="1" stop-color="rgb(12.948608%, 29.553223%, 70.320129%)" offset="0.429688"/><stop stop-opacity="1" stop-color="rgb(12.969971%, 29.679871%, 70.617676%)" offset="0.4375"/><stop stop-opacity="1" stop-color="rgb(12.991333%, 29.804993%, 70.916748%)" offset="0.445312"/><stop stop-opacity="1" stop-color="rgb(13.012695%, 29.931641%, 71.214294%)" offset="0.453125"/><stop stop-opacity="1" stop-color="rgb(13.032532%, 30.056763%, 71.511841%)" offset="0.460938"/><stop stop-opacity="1" stop-color="rgb(13.053894%, 30.183411%, 71.809387%)" offset="0.46875"/><stop stop-opacity="1" stop-color="rgb(13.075256%, 30.308533%, 72.106934%)" offset="0.476562"/><stop stop-opacity="1" stop-color="rgb(13.096619%, 30.435181%, 72.40448%)" offset="0.484375"/><stop stop-opacity="1" stop-color="rgb(13.117981%, 30.560303%, 72.702026%)" offset="0.492188"/><stop stop-opacity="1" stop-color="rgb(13.137817%, 30.685425%, 72.999573%)" offset="0.5"/><stop stop-opacity="1" stop-color="rgb(13.15918%, 30.812073%, 73.297119%)" offset="0.507812"/><stop stop-opacity="1" stop-color="rgb(13.180542%, 30.937195%, 73.594666%)" offset="0.515625"/><stop stop-opacity="1" stop-color="rgb(13.201904%, 31.063843%, 73.892212%)" offset="0.523438"/><stop stop-opacity="1" stop-color="rgb(13.223267%, 31.188965%, 74.189758%)" offset="0.53125"/><stop stop-opacity="1" stop-color="rgb(13.244629%, 31.315613%, 74.487305%)" offset="0.539062"/><stop stop-opacity="1" stop-color="rgb(13.264465%, 31.440735%, 74.786377%)" offset="0.546875"/><stop stop-opacity="1" stop-color="rgb(13.285828%, 31.565857%, 75.083923%)" offset="0.554688"/><stop stop-opacity="1" stop-color="rgb(13.30719%, 31.692505%, 75.38147%)" offset="0.5625"/><stop stop-opacity="1" stop-color="rgb(13.328552%, 31.817627%, 75.679016%)" offset="0.570312"/><stop stop-opacity="1" stop-color="rgb(13.349915%, 31.944275%, 75.976562%)" offset="0.578125"/><stop stop-opacity="1" stop-color="rgb(13.371277%, 32.069397%, 76.274109%)" offset="0.585938"/><stop stop-opacity="1" stop-color="rgb(13.391113%, 32.196045%, 76.571655%)" offset="0.59375"/><stop stop-opacity="1" stop-color="rgb(13.412476%, 32.321167%, 76.869202%)" offset="0.601562"/><stop stop-opacity="1" stop-color="rgb(13.433838%, 32.446289%, 77.166748%)" offset="0.609375"/><stop stop-opacity="1" stop-color="rgb(13.4552%, 32.572937%, 77.464294%)" offset="0.617188"/><stop stop-opacity="1" stop-color="rgb(13.476562%, 32.698059%, 77.761841%)" offset="0.625"/><stop stop-opacity="1" stop-color="rgb(13.496399%, 32.824707%, 78.059387%)" offset="0.632812"/><stop stop-opacity="1" stop-color="rgb(13.517761%, 32.949829%, 78.356934%)" offset="0.640625"/><stop stop-opacity="1" stop-color="rgb(13.539124%, 33.076477%, 78.65448%)" offset="0.648438"/><stop stop-opacity="1" stop-color="rgb(13.560486%, 33.201599%, 78.953552%)" offset="0.65625"/><stop stop-opacity="1" stop-color="rgb(13.581848%, 33.326721%, 79.251099%)" offset="0.664062"/><stop stop-opacity="1" stop-color="rgb(13.60321%, 33.453369%, 79.548645%)" offset="0.671875"/><stop stop-opacity="1" stop-color="rgb(13.623047%, 33.578491%, 79.846191%)" offset="0.679688"/><stop stop-opacity="1" stop-color="rgb(13.644409%, 33.705139%, 80.143738%)" offset="0.6875"/><stop stop-opacity="1" stop-color="rgb(13.665771%, 33.830261%, 80.441284%)" offset="0.695312"/><stop stop-opacity="1" stop-color="rgb(13.687134%, 33.956909%, 80.738831%)" offset="0.703125"/><stop stop-opacity="1" stop-color="rgb(13.708496%, 34.082031%, 81.036377%)" offset="0.710938"/><stop stop-opacity="1" stop-color="rgb(13.729858%, 34.207153%, 81.333923%)" offset="0.71875"/><stop stop-opacity="1" stop-color="rgb(13.749695%, 34.333801%, 81.63147%)" offset="0.726562"/><stop stop-opacity="1" stop-color="rgb(13.771057%, 34.458923%, 81.929016%)" offset="0.734375"/><stop stop-opacity="1" stop-color="rgb(13.792419%, 34.585571%, 82.226562%)" offset="0.742188"/><stop stop-opacity="1" stop-color="rgb(13.813782%, 34.710693%, 82.524109%)" offset="0.75"/><stop stop-opacity="1" stop-color="rgb(13.835144%, 34.837341%, 82.821655%)" offset="0.757812"/><stop stop-opacity="1" stop-color="rgb(13.85498%, 34.962463%, 83.120728%)" offset="0.765625"/><stop stop-opacity="1" stop-color="rgb(13.876343%, 35.089111%, 83.418274%)" offset="0.773438"/><stop stop-opacity="1" stop-color="rgb(13.897705%, 35.214233%, 83.71582%)" offset="0.78125"/><stop stop-opacity="1" stop-color="rgb(13.919067%, 35.339355%, 84.013367%)" offset="0.789062"/><stop stop-opacity="1" stop-color="rgb(13.94043%, 35.466003%, 84.310913%)" offset="0.796875"/><stop stop-opacity="1" stop-color="rgb(13.961792%, 35.591125%, 84.608459%)" offset="0.804688"/><stop stop-opacity="1" stop-color="rgb(13.981628%, 35.717773%, 84.906006%)" offset="0.8125"/><stop stop-opacity="1" stop-color="rgb(14.002991%, 35.842896%, 85.203552%)" offset="0.820312"/><stop stop-opacity="1" stop-color="rgb(14.024353%, 35.969543%, 85.501099%)" offset="0.828125"/><stop stop-opacity="1" stop-color="rgb(14.045715%, 36.094666%, 85.798645%)" offset="0.835938"/><stop stop-opacity="1" stop-color="rgb(14.067078%, 36.219788%, 86.096191%)" offset="0.84375"/><stop stop-opacity="1" stop-color="rgb(14.08844%, 36.346436%, 86.393738%)" offset="0.851562"/><stop stop-opacity="1" stop-color="rgb(14.108276%, 36.471558%, 86.691284%)" offset="0.859375"/><stop stop-opacity="1" stop-color="rgb(14.129639%, 36.598206%, 86.988831%)" offset="0.867188"/><stop stop-opacity="1" stop-color="rgb(14.151001%, 36.723328%, 87.287903%)" offset="0.875"/><stop stop-opacity="1" stop-color="rgb(14.172363%, 36.849976%, 87.585449%)" offset="0.882812"/><stop stop-opacity="1" stop-color="rgb(14.193726%, 36.975098%, 87.882996%)" offset="0.890625"/><stop stop-opacity="1" stop-color="rgb(14.215088%, 37.10022%, 88.180542%)" offset="0.898438"/><stop stop-opacity="1" stop-color="rgb(14.234924%, 37.226868%, 88.478088%)" offset="0.90625"/><stop stop-opacity="1" stop-color="rgb(14.256287%, 37.35199%, 88.775635%)" offset="0.914062"/><stop stop-opacity="1" stop-color="rgb(14.277649%, 37.478638%, 89.073181%)" offset="0.921875"/><stop stop-opacity="1" stop-color="rgb(14.299011%, 37.60376%, 89.370728%)" offset="0.929688"/><stop stop-opacity="1" stop-color="rgb(14.320374%, 37.730408%, 89.668274%)" offset="0.9375"/><stop stop-opacity="1" stop-color="rgb(14.34021%, 37.85553%, 89.96582%)" offset="0.945312"/><stop stop-opacity="1" stop-color="rgb(14.361572%, 37.980652%, 90.263367%)" offset="0.953125"/><stop stop-opacity="1" stop-color="rgb(14.382935%, 38.1073%, 90.560913%)" offset="0.960938"/><stop stop-opacity="1" stop-color="rgb(14.404297%, 38.232422%, 90.858459%)" offset="0.96875"/><stop stop-opacity="1" stop-color="rgb(14.425659%, 38.35907%, 91.156006%)" offset="0.976562"/><stop stop-opacity="1" stop-color="rgb(14.447021%, 38.484192%, 91.455078%)" offset="0.984375"/><stop stop-opacity="1" stop-color="rgb(14.466858%, 38.61084%, 91.752625%)" offset="0.992188"/><stop stop-opacity="1" stop-color="rgb(14.48822%, 38.735962%, 92.050171%)" offset="1"/></linearGradient></defs><g clip-path="url(#861202e433)"><path fill="#231f20" d="M 111.464844 441.777344 C 112.90625 453.589844 115.066406 465.398438 117.945312 476.921875 L 108.152344 479.371094 C 105.273438 467.417969 102.96875 455.171875 101.527344 443.074219 Z M 119.097656 514.660156 C 123.417969 526.183594 128.605469 537.417969 134.367188 548.363281 L 143.296875 543.609375 C 137.824219 533.09375 132.78125 522.148438 128.605469 511.058594 Z M 708.917969 368.320312 C 707.476562 356.078125 705.171875 343.835938 702.292969 332.023438 L 692.496094 334.472656 C 695.378906 345.996094 697.539062 357.804688 698.980469 369.617188 Z M 153.523438 579.90625 C 160.4375 589.988281 168.214844 599.785156 176.28125 609 L 183.769531 602.375 C 175.847656 593.445312 168.503906 584.082031 161.734375 574.289062 Z M 332.125 703.054688 C 344.078125 705.9375 356.324219 708.242188 368.421875 709.679688 L 369.574219 699.597656 C 357.761719 698.160156 345.953125 695.996094 334.429688 693.261719 Z M 202.496094 635.070312 C 211.710938 643.28125 221.507812 650.914062 231.589844 657.828125 L 237.351562 649.476562 C 227.554688 642.707031 218.195312 635.359375 209.265625 627.4375 Z M 202.0625 177.042969 C 192.84375 185.109375 184.058594 194.039062 175.992188 203.113281 L 183.480469 209.738281 C 191.402344 200.953125 199.902344 192.457031 208.6875 184.535156 Z M 109.304688 405.914062 C 109.304688 394.101562 110.023438 382.148438 111.464844 370.480469 L 101.382812 369.328125 C 99.941406 381.285156 99.222656 393.671875 99.222656 405.914062 L 99.222656 406.203125 L 109.304688 406.203125 Z M 333.996094 118.566406 L 331.550781 108.773438 C 319.59375 111.652344 307.785156 115.398438 296.261719 119.863281 L 299.863281 129.222656 C 310.953125 125.046875 322.476562 121.445312 333.996094 118.566406 Z M 267.308594 143.914062 L 262.554688 134.984375 C 251.753906 140.746094 241.09375 147.230469 231.011719 154.140625 L 236.773438 162.496094 C 246.570312 155.726562 256.796875 149.535156 267.308594 143.914062 Z M 161.445312 237.96875 L 153.089844 232.207031 C 146.175781 242.292969 139.695312 252.949219 133.933594 263.894531 L 142.863281 268.648438 C 148.480469 258.136719 154.675781 247.765625 161.445312 237.96875 Z M 128.316406 301.199219 L 118.953125 297.601562 C 114.632812 309.121094 110.890625 320.933594 108.007812 332.886719 L 117.800781 335.335938 C 120.539062 323.8125 124.140625 312.292969 128.316406 301.199219 Z M 263.132812 676.984375 C 274.078125 682.746094 285.3125 687.789062 296.835938 692.109375 L 300.4375 682.746094 C 289.347656 678.570312 278.398438 673.671875 267.886719 668.054688 Z M 675.933594 263.175781 L 667.003906 267.929688 C 672.621094 278.445312 677.519531 289.390625 681.695312 300.480469 L 691.058594 296.878906 C 686.878906 285.355469 681.695312 273.980469 675.933594 263.175781 Z M 648.855469 574 L 657.210938 579.761719 C 664.265625 569.679688 670.605469 559.023438 676.367188 548.21875 L 667.4375 543.464844 C 661.820312 553.835938 655.625 564.207031 648.855469 574 Z M 367.988281 102.144531 L 369.140625 112.085938 C 380.953125 110.644531 392.90625 109.925781 404.863281 109.925781 L 404.863281 99.839844 C 392.476562 99.839844 380.089844 100.5625 367.988281 102.144531 Z M 681.984375 510.769531 L 691.34375 514.371094 C 695.667969 502.847656 699.410156 491.039062 702.292969 479.082031 L 692.496094 476.632812 C 689.761719 488.15625 686.160156 499.679688 681.984375 510.769531 Z M 601.46875 627.292969 L 608.09375 634.785156 C 617.3125 626.574219 626.097656 617.789062 634.164062 608.714844 L 626.675781 602.085938 C 618.894531 611.019531 610.398438 619.515625 601.46875 627.292969 Z M 701.140625 405.195312 L 701.140625 405.769531 C 701.140625 417.722656 700.417969 429.679688 698.980469 441.488281 L 708.917969 442.640625 C 710.359375 430.542969 711.078125 418.15625 711.078125 405.769531 L 711.078125 405.195312 Z M 634.019531 202.539062 L 626.386719 209.308594 C 634.308594 218.238281 641.652344 227.601562 648.421875 237.394531 L 656.777344 231.632812 C 649.863281 221.550781 642.085938 211.757812 634.019531 202.539062 Z M 476.160156 693.261719 L 478.609375 703.054688 C 490.5625 700.175781 502.375 696.429688 513.894531 692.109375 L 510.296875 682.746094 C 499.203125 686.78125 487.679688 690.378906 476.160156 693.261719 Z M 441.589844 102.003906 L 440.4375 112.085938 C 452.25 113.523438 464.058594 115.683594 475.582031 118.421875 L 478.03125 108.484375 C 466.078125 105.601562 453.832031 103.441406 441.589844 102.003906 Z M 405.4375 701.757812 L 405.4375 711.839844 C 417.679688 711.839844 430.210938 711.121094 442.3125 709.679688 L 441.160156 699.742188 C 429.347656 701.039062 417.25 701.757812 405.4375 701.757812 Z M 513.320312 119.429688 L 509.71875 128.792969 C 520.808594 132.96875 531.757812 137.867188 542.269531 143.484375 L 546.878906 134.554688 C 536.222656 128.9375 524.84375 123.75 513.320312 119.429688 Z M 578.710938 153.710938 L 572.949219 162.0625 C 582.742188 168.832031 592.25 176.179688 601.035156 184.101562 L 607.660156 176.613281 C 598.585938 168.402344 588.792969 160.625 578.710938 153.710938 Z M 542.847656 667.910156 L 547.601562 676.839844 C 558.402344 671.078125 569.0625 664.742188 579.144531 657.683594 L 573.382812 649.332031 C 563.585938 656.101562 553.359375 662.4375 542.847656 667.910156 Z M 542.847656 667.910156 " fill-opacity="1" fill-rule="nonzero"/></g><g clip-path="url(#e45f2fafa1)"><path fill="#231f20" d="M 45.839844 449.671875 C 47.601562 464.117188 50.246094 478.5625 53.769531 492.65625 L 41.789062 495.648438 C 38.265625 481.027344 35.449219 466.054688 33.6875 451.257812 Z M 55.175781 538.808594 C 60.460938 552.902344 66.804688 566.640625 73.851562 580.03125 L 84.773438 574.21875 C 78.078125 561.359375 71.914062 547.96875 66.804688 534.40625 Z M 776.550781 359.832031 C 774.789062 344.859375 771.96875 329.882812 768.445312 315.4375 L 756.46875 318.433594 C 759.988281 332.527344 762.632812 346.972656 764.394531 361.417969 Z M 97.28125 618.609375 C 105.734375 630.941406 115.246094 642.917969 125.113281 654.191406 L 134.273438 646.089844 C 124.585938 635.167969 115.601562 623.71875 107.320312 611.738281 Z M 315.714844 769.226562 C 330.339844 772.75 345.3125 775.566406 360.109375 777.328125 L 361.519531 764.996094 C 347.074219 763.234375 332.628906 760.59375 318.535156 757.246094 Z M 157.171875 686.078125 C 168.449219 696.121094 180.425781 705.457031 192.757812 713.910156 L 199.804688 703.695312 C 187.824219 695.414062 176.375 686.429688 165.453125 676.742188 Z M 156.644531 125.890625 C 145.371094 135.757812 134.625 146.679688 124.761719 157.777344 L 133.921875 165.878906 C 143.609375 155.132812 154.003906 144.742188 164.75 135.050781 Z M 43.199219 405.808594 C 43.199219 391.363281 44.078125 376.742188 45.839844 362.472656 L 33.511719 361.066406 C 31.75 375.6875 30.867188 390.835938 30.867188 405.808594 L 30.867188 406.160156 L 43.199219 406.160156 Z M 318.007812 54.371094 L 315.011719 42.394531 C 300.390625 45.914062 285.945312 50.496094 271.851562 55.957031 L 276.257812 67.40625 C 289.820312 62.296875 303.914062 57.894531 318.007812 54.371094 Z M 236.445312 85.375 L 230.632812 74.453125 C 217.421875 81.5 204.382812 89.425781 192.054688 97.882812 L 199.097656 108.101562 C 211.078125 99.820312 223.585938 92.246094 236.445312 85.375 Z M 106.96875 200.40625 L 96.75 193.359375 C 88.296875 205.691406 80.367188 218.726562 73.320312 232.117188 L 84.242188 237.929688 C 91.113281 225.070312 98.6875 212.386719 106.96875 200.40625 Z M 66.453125 277.742188 L 55 273.335938 C 49.714844 287.429688 45.136719 301.875 41.613281 316.496094 L 53.59375 319.492188 C 56.9375 305.398438 61.34375 291.304688 66.453125 277.742188 Z M 231.335938 737.339844 C 244.726562 744.386719 258.464844 750.550781 272.558594 755.835938 L 276.960938 744.386719 C 263.398438 739.277344 250.007812 733.289062 237.148438 726.417969 Z M 736.207031 231.234375 L 725.285156 237.046875 C 732.15625 249.90625 738.144531 263.296875 743.253906 276.859375 L 754.707031 272.457031 C 749.597656 258.363281 743.253906 244.445312 736.207031 231.234375 Z M 703.089844 611.386719 L 713.308594 618.433594 C 721.941406 606.101562 729.691406 593.066406 736.738281 579.855469 L 725.816406 574.039062 C 718.945312 586.722656 711.371094 599.40625 703.089844 611.386719 Z M 359.582031 34.289062 L 360.988281 46.445312 C 375.433594 44.683594 390.054688 43.800781 404.675781 43.800781 L 404.675781 31.472656 C 389.527344 31.472656 374.378906 32.351562 359.582031 34.289062 Z M 743.605469 534.054688 L 755.058594 538.457031 C 760.34375 524.363281 764.921875 509.917969 768.445312 495.296875 L 756.46875 492.304688 C 753.121094 506.394531 748.714844 520.488281 743.605469 534.054688 Z M 645.132812 676.566406 L 653.238281 685.726562 C 664.511719 675.683594 675.257812 664.9375 685.121094 653.839844 L 675.960938 645.738281 C 666.449219 656.660156 656.054688 667.054688 645.132812 676.566406 Z M 767.035156 404.929688 L 767.035156 405.632812 C 767.035156 420.253906 766.15625 434.875 764.394531 449.320312 L 776.550781 450.730469 C 778.3125 435.933594 779.191406 420.78125 779.191406 405.632812 L 779.191406 404.929688 Z M 684.945312 157.074219 L 675.609375 165.351562 C 685.296875 176.273438 694.28125 187.722656 702.5625 199.703125 L 712.78125 192.65625 C 704.324219 180.324219 694.8125 168.347656 684.945312 157.074219 Z M 491.875 757.246094 L 494.871094 769.226562 C 509.492188 765.703125 523.9375 761.121094 538.03125 755.835938 L 533.625 744.386719 C 520.0625 749.320312 505.96875 753.722656 491.875 757.246094 Z M 449.597656 34.113281 L 448.1875 46.445312 C 462.632812 48.207031 477.078125 50.847656 491.171875 54.195312 L 494.164062 42.039062 C 479.542969 38.515625 464.570312 35.875 449.597656 34.113281 Z M 405.382812 767.640625 L 405.382812 779.972656 C 420.355469 779.972656 435.679688 779.089844 450.480469 777.328125 L 449.070312 765.171875 C 434.625 766.757812 419.828125 767.640625 405.382812 767.640625 Z M 537.324219 55.429688 L 532.921875 66.878906 C 546.484375 71.988281 559.875 77.976562 572.734375 84.847656 L 578.371094 73.925781 C 565.335938 67.054688 551.417969 60.714844 537.324219 55.429688 Z M 617.300781 97.355469 L 610.253906 107.570312 C 622.234375 115.851562 633.859375 124.835938 644.605469 134.523438 L 652.710938 125.363281 C 641.609375 115.324219 629.632812 105.808594 617.300781 97.355469 Z M 573.4375 726.242188 L 579.25 737.164062 C 592.460938 730.117188 605.5 722.367188 617.828125 713.734375 L 610.785156 703.519531 C 598.804688 711.796875 586.296875 719.546875 573.4375 726.242188 Z M 573.4375 726.242188 " fill-opacity="1" fill-rule="nonzero"/></g><g clip-path="url(#70ab79ea11)"><g clip-path="url(#569a905cd3)"><path fill="url(#e6b01720f3)" d="M 136.742188 136.742188 L 136.742188 673.257812 L 673.257812 673.257812 L 673.257812 136.742188 Z M 136.742188 136.742188 " fill-rule="nonzero"/></g></g><g fill="#ffffff" fill-opacity="1"><g transform="translate(246.106251, 489.316445)"><g><path d="M 15.265625 0.75 C 13.765625 0.75 12.640625 0.207031 11.890625 -0.875 C 11.140625 -1.957031 10.765625 -3.25 10.765625 -4.75 C 10.929688 -7.25 11.429688 -8.75 12.265625 -9.25 C 13.097656 -9.757812 14.679688 -10.015625 17.015625 -10.015625 C 21.847656 -10.015625 25.429688 -10.890625 27.765625 -12.640625 C 30.109375 -14.390625 31.570312 -16.554688 32.15625 -19.140625 C 32.738281 -21.722656 33.113281 -25.101562 33.28125 -29.28125 L 33.28125 -128.359375 C 33.113281 -132.703125 32.738281 -136.125 32.15625 -138.625 C 31.570312 -141.125 30.109375 -143.289062 27.765625 -145.125 C 25.429688 -146.957031 21.847656 -147.875 17.015625 -147.875 L 15.515625 -147.875 C 13.847656 -147.875 12.679688 -148.164062 12.015625 -148.75 C 11.347656 -149.332031 10.929688 -150.796875 10.765625 -153.140625 C 10.765625 -154.640625 11.140625 -155.929688 11.890625 -157.015625 C 12.640625 -158.097656 13.765625 -158.640625 15.265625 -158.640625 C 26.109375 -158.140625 36.035156 -157.890625 45.046875 -157.890625 L 88.078125 -157.890625 C 100.921875 -157.722656 111.632812 -155.675781 120.21875 -151.75 C 128.8125 -147.832031 135.109375 -142.828125 139.109375 -136.734375 C 143.117188 -130.648438 145.125 -124.109375 145.125 -117.109375 C 145.125 -107.929688 141.492188 -99.503906 134.234375 -91.828125 C 126.984375 -84.148438 117.101562 -78.644531 104.59375 -75.3125 L 108.84375 -68.5625 C 115.851562 -57.21875 122.191406 -47.5 127.859375 -39.40625 C 133.535156 -31.320312 139.707031 -23.773438 146.375 -16.765625 C 151.050781 -12.929688 156.054688 -10.679688 161.390625 -10.015625 C 161.722656 -10.015625 162.472656 -9.972656 163.640625 -9.890625 C 164.804688 -9.804688 165.765625 -9.34375 166.515625 -8.5 C 167.265625 -7.664062 167.640625 -6.414062 167.640625 -4.75 C 167.640625 -3.25 167.265625 -1.957031 166.515625 -0.875 C 165.765625 0.207031 164.640625 0.75 163.140625 0.75 L 156.640625 0.5 C 149.296875 0.164062 143.957031 0 140.625 0 C 133.945312 -1.332031 128.234375 -3.707031 123.484375 -7.125 C 118.734375 -10.550781 114.019531 -15.429688 109.34375 -21.765625 C 104.507812 -28.109375 97.753906 -38.453125 89.078125 -52.796875 L 84.578125 -60.046875 C 82.078125 -63.890625 79.65625 -66.519531 77.3125 -67.9375 C 74.976562 -69.351562 70.976562 -70.0625 65.3125 -70.0625 L 58.046875 -70.0625 L 58.046875 -29.28125 C 58.210938 -25.101562 58.585938 -21.722656 59.171875 -19.140625 C 59.753906 -16.554688 61.210938 -14.390625 63.546875 -12.640625 C 65.890625 -10.890625 69.476562 -10.015625 74.3125 -10.015625 L 75.8125 -10.015625 C 77.3125 -10.015625 78.4375 -9.71875 79.1875 -9.125 C 79.9375 -8.539062 80.398438 -7.082031 80.578125 -4.75 C 80.578125 -3.25 80.195312 -1.957031 79.4375 -0.875 C 78.6875 0.207031 77.5625 0.75 76.0625 0.75 C 65.382812 0.25 54.960938 0 44.796875 0 C 35.953125 0 26.109375 0.25 15.265625 0.75 Z M 80.0625 -79.8125 C 104.925781 -79.8125 117.359375 -91.488281 117.359375 -114.84375 C 117.359375 -124.351562 114.101562 -132.359375 107.59375 -138.859375 C 101.082031 -145.367188 90.40625 -148.625 75.5625 -148.625 C 70.726562 -148.625 67.054688 -148.039062 64.546875 -146.875 C 62.046875 -145.707031 60.335938 -143.707031 59.421875 -140.875 C 58.503906 -138.039062 58.046875 -133.703125 58.046875 -127.859375 L 58.046875 -79.8125 Z M 80.0625 -79.8125 "/></g></g></g><g fill="#ffffff" fill-opacity="1"><g transform="translate(414.000215, 489.316445)"><g><path d="M 12.265625 0.75 C 11.097656 0.75 10.132812 0.25 9.375 -0.75 C 8.625 -1.75 8.25 -2.914062 8.25 -4.25 C 8.414062 -6.414062 8.914062 -7.707031 9.75 -8.125 C 10.59375 -8.539062 12.097656 -8.75 14.265625 -8.75 C 18.597656 -8.75 21.679688 -9.5 23.515625 -11 C 25.347656 -12.507812 26.390625 -14.265625 26.640625 -16.265625 C 26.898438 -18.265625 27.03125 -21.429688 27.03125 -25.765625 L 27.03125 -83.078125 C 27.03125 -87.410156 26.898438 -90.578125 26.640625 -92.578125 C 26.390625 -94.578125 25.347656 -96.328125 23.515625 -97.828125 C 21.679688 -99.335938 18.597656 -100.09375 14.265625 -100.09375 C 12.265625 -100.09375 10.757812 -100.382812 9.75 -100.96875 C 8.75 -101.550781 8.25 -102.925781 8.25 -105.09375 C 8.25 -106.09375 8.582031 -107.050781 9.25 -107.96875 C 9.925781 -108.882812 10.929688 -109.425781 12.265625 -109.59375 C 23.109375 -111.257812 32.03125 -113.425781 39.03125 -116.09375 C 41.863281 -116.9375 43.785156 -117.441406 44.796875 -117.609375 L 45.546875 -117.609375 C 48.210938 -117.609375 49.546875 -116.019531 49.546875 -112.84375 L 49.546875 -97.078125 L 50.296875 -97.078125 C 55.128906 -101.585938 59.046875 -105.050781 62.046875 -107.46875 C 65.054688 -109.882812 68.9375 -111.96875 73.6875 -113.71875 C 78.445312 -115.476562 84.078125 -116.359375 90.578125 -116.359375 C 101.921875 -116.359375 110.925781 -112.9375 117.59375 -106.09375 C 124.269531 -99.25 127.609375 -90.238281 127.609375 -79.0625 L 127.609375 -25.765625 C 127.609375 -21.429688 127.773438 -18.265625 128.109375 -16.265625 C 128.441406 -14.265625 129.523438 -12.507812 131.359375 -11 C 133.203125 -9.5 136.289062 -8.75 140.625 -8.75 L 142.125 -8.75 C 143.457031 -8.75 144.457031 -8.5 145.125 -8 C 145.789062 -7.5 146.207031 -6.25 146.375 -4.25 C 146.375 -2.914062 146 -1.75 145.25 -0.75 C 144.5 0.25 143.539062 0.75 142.375 0.75 C 132.695312 0.25 123.9375 0 116.09375 0 C 108.59375 0 99.921875 0.25 90.078125 0.75 C 88.910156 0.75 87.953125 0.25 87.203125 -0.75 C 86.453125 -1.75 86.078125 -2.914062 86.078125 -4.25 C 86.242188 -6.414062 86.703125 -7.707031 87.453125 -8.125 C 88.203125 -8.539062 89.660156 -8.75 91.828125 -8.75 C 96.171875 -8.75 99.257812 -9.5 101.09375 -11 C 102.925781 -12.507812 104.007812 -14.265625 104.34375 -16.265625 C 104.675781 -18.265625 104.84375 -21.429688 104.84375 -25.765625 L 104.84375 -78.8125 C 104.84375 -86.488281 102.421875 -92.367188 97.578125 -96.453125 C 92.742188 -100.546875 87.160156 -102.59375 80.828125 -102.59375 C 73.148438 -102.59375 66.554688 -100.710938 61.046875 -96.953125 C 55.546875 -93.203125 51.796875 -89.328125 49.796875 -85.328125 L 49.796875 -25.765625 C 49.796875 -21.429688 49.960938 -18.265625 50.296875 -16.265625 C 50.628906 -14.265625 51.710938 -12.507812 53.546875 -11 C 55.378906 -9.5 58.46875 -8.75 62.8125 -8.75 L 64.3125 -8.75 C 65.644531 -8.75 66.644531 -8.5 67.3125 -8 C 67.976562 -7.5 68.394531 -6.25 68.5625 -4.25 C 68.5625 -2.914062 68.226562 -1.75 67.5625 -0.75 C 66.894531 0.25 65.894531 0.75 64.5625 0.75 C 54.882812 0.25 46.125 0 38.28125 0 C 30.78125 0 22.109375 0.25 12.265625 0.75 Z M 12.265625 0.75 "/></g></g></g><g clip-path="url(#aaf16e953b)"><g clip-path="url(#0a21fccf6c)"><path fill="url(#f244bf8c90)" d="M 595.835938 79.234375 L 595.835938 156.65625 L 673.257812 156.65625 L 673.257812 79.234375 Z M 595.835938 79.234375 " fill-rule="nonzero"/></g></g><g fill="#ffffff" fill-opacity="1"><g transform="translate(612.487644, 130.984057)"><g><path d="M 10.71875 0.359375 C 8.726562 0.359375 7.046875 0.0507812 5.671875 -0.5625 C 4.304688 -1.175781 3.273438 -2.050781 2.578125 -3.1875 C 1.878906 -4.332031 1.53125 -5.6875 1.53125 -7.25 C 1.53125 -8.695312 1.890625 -9.945312 2.609375 -11 C 3.328125 -12.0625 4.378906 -12.894531 5.765625 -13.5 L 5.765625 -13.859375 C 4.785156 -14.460938 4.035156 -15.179688 3.515625 -16.015625 C 2.992188 -16.847656 2.734375 -17.820312 2.734375 -18.9375 C 2.734375 -20.195312 3.039062 -21.3125 3.65625 -22.28125 C 4.28125 -23.25 5.191406 -24 6.390625 -24.53125 C 7.597656 -25.070312 9.039062 -25.34375 10.71875 -25.34375 C 12.394531 -25.34375 13.828125 -25.070312 15.015625 -24.53125 C 16.210938 -24 17.125 -23.25 17.75 -22.28125 C 18.382812 -21.3125 18.703125 -20.195312 18.703125 -18.9375 C 18.703125 -17.820312 18.4375 -16.847656 17.90625 -16.015625 C 17.382812 -15.191406 16.628906 -14.472656 15.640625 -13.859375 L 15.640625 -13.5 C 17.097656 -12.914062 18.164062 -12.085938 18.84375 -11.015625 C 19.53125 -9.953125 19.875 -8.695312 19.875 -7.25 C 19.875 -5.6875 19.523438 -4.332031 18.828125 -3.1875 C 18.140625 -2.050781 17.109375 -1.175781 15.734375 -0.5625 C 14.367188 0.0507812 12.695312 0.359375 10.71875 0.359375 Z M 10.71875 -15.265625 C 11.707031 -15.265625 12.492188 -15.535156 13.078125 -16.078125 C 13.671875 -16.628906 13.96875 -17.390625 13.96875 -18.359375 C 13.96875 -19.335938 13.671875 -20.101562 13.078125 -20.65625 C 12.492188 -21.21875 11.707031 -21.5 10.71875 -21.5 C 9.695312 -21.5 8.894531 -21.222656 8.3125 -20.671875 C 7.738281 -20.117188 7.453125 -19.347656 7.453125 -18.359375 C 7.453125 -17.378906 7.738281 -16.617188 8.3125 -16.078125 C 8.894531 -15.535156 9.695312 -15.265625 10.71875 -15.265625 Z M 10.71875 -3.84375 C 12.050781 -3.84375 13.082031 -4.175781 13.8125 -4.84375 C 14.539062 -5.507812 14.90625 -6.4375 14.90625 -7.625 C 14.90625 -8.8125 14.539062 -9.738281 13.8125 -10.40625 C 13.082031 -11.070312 12.050781 -11.40625 10.71875 -11.40625 C 9.375 -11.40625 8.335938 -11.070312 7.609375 -10.40625 C 6.878906 -9.738281 6.515625 -8.8125 6.515625 -7.625 C 6.515625 -6.4375 6.878906 -5.507812 7.609375 -4.84375 C 8.335938 -4.175781 9.375 -3.84375 10.71875 -3.84375 Z M 10.71875 -3.84375 "/></g></g></g><g fill="#ffffff" fill-opacity="1"><g transform="translate(633.913524, 130.984057)"><g><path d="M 11.953125 0.359375 C 10.066406 0.359375 8.382812 -0.0703125 6.90625 -0.9375 C 5.4375 -1.800781 4.269531 -3.175781 3.40625 -5.0625 C 2.539062 -6.945312 2.109375 -9.34375 2.109375 -12.25 C 2.109375 -15.21875 2.5625 -17.675781 3.46875 -19.625 C 4.382812 -21.582031 5.628906 -23.023438 7.203125 -23.953125 C 8.785156 -24.878906 10.59375 -25.34375 12.625 -25.34375 C 14.320312 -25.34375 15.78125 -25.097656 17 -24.609375 C 18.226562 -24.117188 19.1875 -23.394531 19.875 -22.4375 L 17.453125 -19.328125 L 17.015625 -19.328125 C 15.984375 -20.566406 14.519531 -21.1875 12.625 -21.1875 C 9.070312 -21.1875 7.253906 -18.582031 7.171875 -13.375 L 7.53125 -13.265625 C 8.113281 -14.335938 8.878906 -15.15625 9.828125 -15.71875 C 10.785156 -16.28125 11.988281 -16.5625 13.4375 -16.5625 C 14.976562 -16.5625 16.3125 -16.234375 17.4375 -15.578125 C 18.570312 -14.921875 19.441406 -13.984375 20.046875 -12.765625 C 20.648438 -11.546875 20.953125 -10.097656 20.953125 -8.421875 C 20.953125 -6.597656 20.585938 -5.023438 19.859375 -3.703125 C 19.140625 -2.378906 18.101562 -1.367188 16.75 -0.671875 C 15.394531 0.015625 13.796875 0.359375 11.953125 0.359375 Z M 11.84375 -3.859375 C 13.132812 -3.859375 14.144531 -4.238281 14.875 -5 C 15.601562 -5.757812 15.96875 -6.820312 15.96875 -8.1875 C 15.96875 -9.550781 15.601562 -10.613281 14.875 -11.375 C 14.144531 -12.132812 13.132812 -12.515625 11.84375 -12.515625 C 11 -12.515625 10.257812 -12.335938 9.625 -11.984375 C 9 -11.628906 8.515625 -11.125 8.171875 -10.46875 C 7.828125 -9.820312 7.65625 -9.0625 7.65625 -8.1875 C 7.65625 -6.851562 8.023438 -5.796875 8.765625 -5.015625 C 9.515625 -4.242188 10.539062 -3.859375 11.84375 -3.859375 Z M 11.84375 -3.859375 "/></g></g></g></svg>